<?xml version="1.0" encoding="utf-8"?>
<!-- Generator: Adobe Illustrator 21.0.0, SVG Export Plug-In . SVG Version: 6.00 Build 0)  -->
<svg version="1.1" id="Layer_1" xmlns="http://www.w3.org/2000/svg" xmlns:xlink="http://www.w3.org/1999/xlink" x="0px" y="0px"
	 viewBox="0 0 100 100" style="enable-background:new 0 0 100 100;" xml:space="preserve">
<style type="text/css">
	.st0{fill:none;stroke:#000000;stroke-miterlimit:10;}
</style>
<path d="M97.2,9.4L97,9.2L96.8,9c-1-0.8-2.2-1.3-3.3-1.3H61l-0.9,2.6c-1.5,4.5-5.6,7.6-10.2,7.6c-4.6,0-8.7-3-10.2-7.6l-0.9-2.6H6.4
	c-2,0-3.1,0.9-3.7,1.7c-0.9,1.1-1.2,2.3-1.1,3.7l1.1,15.2c0.2,2.5,2.3,4.3,4.8,4.3h13.2l1.9,54.9c0,2.6,2.1,4.8,4.8,4.8h45.2
	c2.7,0,4.9-2.1,4.9-4.8l1.9-54.9h13.2c2.5,0,4.5-2,4.8-4.5l1-15.2l0-0.2C98.4,11.5,98,10.3,97.2,9.4z M92.4,27.6H77.5
	c-1.8,0-3.1,1.3-3.1,3l-2,56.7H27.7l-1.9-56.5c0-1.9-1.3-3.2-3.1-3.2H7.8L6.7,12.7h28.7c2.4,6.1,8.2,10.2,14.6,10.2
	c6.5,0,12.3-4.1,14.6-10.2h28.8L92.4,27.6z"/>
<path class="st0" d="M-28.3,26.8L-28.3,26.8L-28.3,26.8z"/>
</svg>
